<?xml version="1.0" standalone="no"?>
<!DOCTYPE svg PUBLIC "-//W3C//DTD SVG 20010904//EN"
 "http://www.w3.org/TR/2001/REC-SVG-20010904/DTD/svg10.dtd">
<svg version="1.0" xmlns="http://www.w3.org/2000/svg"
 width="16.000000pt" height="16.000000pt" viewBox="0 0 16.000000 16.000000"
 preserveAspectRatio="xMidYMid meet">
<metadata>
Created by potrace 1.11, written by Peter Selinger 2001-2013
</metadata>
<g transform="translate(0.000000,16.000000) scale(0.006250,-0.006250)"
fill="#000000" stroke="none">
<path d="M0 1975 c0 -322 3 -585 6 -585 3 0 13 4 22 9 9 4 38 11 64 13 l48 6
-29 -37 c-15 -20 -46 -64 -69 -98 -42 -61 -42 -63 -42 -153 0 -103 -5 -100 86
-60 23 10 57 21 75 25 19 4 47 14 64 23 l30 15 -26 -34 c-37 -48 -55 -88 -63
-134 l-6 -40 20 25 c12 14 37 44 57 68 19 24 37 41 40 38 3 -3 1 -11 -5 -18
-5 -7 -28 -58 -50 -113 -137 -345 -174 -646 -106 -875 24 -81 25 -53 2 35 -31
116 -31 321 1 465 30 136 99 347 149 452 37 79 43 86 125 147 48 35 87 69 87
74 0 6 3 8 6 4 3 -3 -13 -38 -37 -78 -40 -69 -109 -211 -109 -224 0 -17 22 7
85 90 84 112 89 117 75 80 -38 -100 -95 -189 -170 -266 -33 -34 -59 -63 -57
-65 2 -2 36 12 76 31 84 40 85 41 73 18 -18 -34 -51 -189 -63 -292 -12 -105
-7 -248 11 -326 5 -22 7 -41 5 -43 -4 -5 -41 66 -61 117 -13 32 -14 32 -8 6
11 -58 60 -140 125 -209 l67 -71 7 48 c13 82 -8 188 -31 164 -13 -13 -16 -106
-5 -139 l12 -33 -40 40 c-34 34 -42 51 -55 117 -18 88 -21 277 -6 383 13 86
58 267 71 279 6 6 13 6 21 -2 7 -7 21 -12 33 -11 16 0 15 2 -7 11 -37 13 -35
26 6 43 24 10 38 25 47 50 19 50 33 44 26 -12 -5 -38 -4 -44 4 -29 7 11 9 43
6 77 -4 43 -1 61 9 70 8 6 14 21 14 33 0 23 35 51 51 40 5 -3 7 -14 4 -24 -3
-10 -1 -21 4 -25 16 -10 90 -172 123 -269 34 -104 78 -204 107 -245 12 -16 26
-52 33 -80 6 -28 15 -51 20 -51 11 0 10 9 -8 71 -9 30 -26 68 -38 84 -31 41
-116 245 -103 245 2 0 17 -19 32 -42 73 -110 274 -275 369 -303 60 -18 135
-19 189 -3 50 15 211 165 292 273 59 79 120 183 112 192 -3 3 -16 -15 -28 -39
-44 -87 -105 -166 -213 -276 -61 -63 -124 -121 -141 -130 -41 -21 -167 -21
-219 1 -122 53 -288 201 -381 342 -63 96 -93 154 -130 259 -24 65 -30 75 -36
57 -11 -27 -33 -28 -24 -1 6 18 8 181 3 235 -6 74 2 94 61 157 33 35 63 60 67
56 4 -5 -1 -18 -12 -30 -16 -18 -17 -21 -2 -15 11 4 18 0 21 -11 3 -12 8 -8
17 16 7 18 33 48 58 67 39 31 52 35 104 35 79 0 111 -19 151 -88 l32 -57 6 60
c8 68 35 161 49 170 6 4 24 -3 40 -15 27 -19 30 -27 31 -78 l1 -57 10 45 c28
137 55 216 122 358 40 86 82 182 92 212 l18 55 8 -40 c13 -66 37 -123 110
-269 64 -127 69 -140 52 -149 -29 -16 -105 -89 -99 -95 3 -3 32 7 65 23 59 28
60 28 76 9 15 -18 15 -18 11 4 -4 15 1 25 13 32 16 8 20 4 30 -26 10 -30 10
-38 -1 -45 -11 -7 -10 -9 4 -9 9 0 17 -4 17 -10 0 -5 -15 -10 -33 -10 -18 0
-53 -10 -77 -22 -35 -18 -51 -35 -73 -77 -15 -30 -27 -64 -26 -75 0 -14 8 -4
25 28 13 27 34 60 46 73 38 41 139 57 157 26 8 -14 11 -15 11 -3 1 25 50 -38
50 -65 0 -13 5 -27 11 -31 8 -5 9 6 3 37 -4 24 -8 54 -8 66 -1 11 -5 19 -9 16
-4 -3 -14 1 -22 7 -11 9 -15 33 -15 81 0 66 1 69 26 75 17 4 29 2 35 -7 19
-29 51 -146 56 -204 2 -33 7 -67 10 -75 8 -23 21 16 22 65 1 30 4 36 11 25 16
-25 11 -64 -16 -136 -29 -75 -66 -197 -94 -314 -11 -41 -30 -106 -43 -145 -22
-64 -23 -79 -15 -181 4 -61 16 -137 26 -170 15 -50 16 -62 5 -72 -7 -7 -13
-17 -13 -23 0 -6 8 -3 17 6 15 16 17 15 31 -10 11 -22 13 -49 7 -124 -8 -110
-32 -233 -49 -243 -21 -14 -26 -8 -27 30 -1 35 -2 34 -10 -13 -5 -27 -13 -66
-18 -85 -9 -29 -10 -20 -7 50 3 80 2 82 -8 38 -6 -26 -16 -52 -21 -57 -9 -9
-106 -36 -255 -71 -25 -6 -49 -16 -55 -22 -7 -8 -4 -9 9 -4 10 4 48 13 83 21
34 8 92 22 126 30 35 8 71 17 79 20 12 5 17 -4 22 -34 3 -23 10 -41 15 -41 5
0 14 21 21 48 14 50 27 72 42 72 10 0 6 -16 -24 -103 -13 -35 -24 -53 -29 -46
-4 6 -15 9 -24 6 -22 -9 -16 -51 8 -55 40 -8 123 261 134 437 l6 103 35 -41
c31 -38 130 -115 121 -95 -2 5 -19 37 -37 72 -31 59 -69 179 -59 188 2 2 18
-17 35 -44 17 -26 47 -63 66 -81 32 -31 36 -40 36 -87 0 -29 3 -55 8 -57 4 -3
5 17 4 44 -2 27 -1 49 2 49 3 0 27 -13 53 -28 27 -16 73 -37 103 -47 30 -10
61 -20 68 -23 6 -2 12 1 12 6 0 6 -9 13 -19 17 -44 14 -121 107 -166 199 -25
50 -45 95 -45 100 0 4 23 -9 50 -29 58 -43 168 -84 222 -85 36 0 37 -1 42 -42
41 -322 81 -528 107 -552 9 -8 10 -6 5 9 -26 71 -57 223 -76 365 -12 91 -24
177 -27 192 -5 27 -4 28 33 28 69 0 84 8 84 46 0 28 -4 33 -27 37 l-28 4 28 2
27 1 0 929 0 928 -77 7 c-42 3 -618 6 -1280 6 l-1203 0 0 -585z m1000 475 c-8
-5 -24 -9 -35 -9 -16 1 -16 2 5 9 35 11 48 11 30 0z m-80 -20 c0 -5 -2 -10 -4
-10 -3 0 -8 5 -11 10 -3 6 -1 10 4 10 6 0 11 -4 11 -10z m-41 -14 c-2 -2 -18
-7 -34 -10 l-30 -6 30 14 c26 12 46 14 34 2z m76 -16 c-27 -12 -43 -12 -25 0
8 5 22 9 30 9 10 0 8 -3 -5 -9z m115 -74 c0 -2 -7 -6 -15 -10 -8 -3 -15 -1
-15 4 0 6 7 10 15 10 8 0 15 -2 15 -4z m1035 -9 c10 -8 14 -16 9 -19 -5 -3
-17 3 -26 14 -21 21 -10 24 17 5z m-1118 -23 c-3 -3 -12 -4 -19 -1 -8 3 -5 6
6 6 11 1 17 -2 13 -5z m427 -19 c-9 -14 -18 -25 -21 -25 -5 0 5 18 20 38 17
22 18 13 1 -13z m649 5 c9 -11 13 -20 8 -20 -4 0 -16 9 -26 20 -10 11 -14 20
-9 20 5 0 17 -9 27 -20z m-769 -5 c-10 -8 -23 -14 -29 -14 -5 0 -1 6 9 14 11
8 24 15 30 15 5 0 1 -7 -10 -15z m876 -8 c14 -13 34 -34 45 -48 11 -13 -3 -4
-30 21 -27 25 -52 46 -54 48 -2 1 0 2 5 2 5 0 20 -11 34 -23z m-1285 -7 c-3
-5 -12 -10 -18 -10 -7 0 -6 4 3 10 19 12 23 12 15 0z m224 -2 c-12 -14 -59
-18 -59 -6 0 6 25 13 58 17 10 1 10 -2 1 -11z m211 -33 c-24 -25 -48 -45 -53
-45 -4 0 7 14 25 30 18 17 28 30 23 30 -9 1 34 29 45 30 2 0 -16 -20 -40 -45z
m710 -8 c0 -6 -11 0 -25 13 -14 13 -25 28 -25 33 0 6 11 0 25 -13 14 -13 25
-28 25 -33z m-769 26 c13 -17 13 -17 -6 -3 -11 8 -22 16 -24 17 -2 2 0 3 6 3
6 0 17 -8 24 -17z m889 13 c0 -2 -7 -7 -16 -10 -8 -3 -12 -2 -9 4 6 10 25 14
25 6z m-1301 -10 c-2 -2 -22 -6 -44 -9 -28 -5 -34 -4 -20 3 19 8 73 14 64 6z
m190 0 c-12 -10 -60 -16 -54 -6 3 5 18 10 32 10 15 0 24 -2 22 -4z m1097 -43
c42 -40 32 -35 -24 10 -19 15 -30 27 -25 27 5 0 27 -17 49 -37z m-1011 7 c-3
-5 -18 -9 -33 -9 l-27 1 30 8 c17 4 31 8 33 9 2 0 0 -3 -3 -9z m26 -13 c-10
-9 -11 -8 -5 6 3 10 9 15 12 12 3 -3 0 -11 -7 -18z m-301 3 c0 -5 -8 -10 -17
-10 -15 0 -16 2 -3 10 19 12 20 12 20 0z m400 6 c0 -2 -8 -10 -17 -17 -16 -13
-17 -12 -4 4 13 16 21 21 21 13z m-380 -26 c-8 -5 -19 -10 -25 -10 -5 0 -3 5
5 10 8 5 20 10 25 10 6 0 3 -5 -5 -10z m1377 -5 c0 -8 -4 -12 -9 -9 -5 3 -6
10 -3 15 9 13 12 11 12 -6z m-1152 -5 c-3 -5 -11 -10 -16 -10 -6 0 -7 5 -4 10
3 6 11 10 16 10 6 0 7 -4 4 -10z m-325 -9 c0 -11 -59 -26 -67 -17 -4 3 3 6 15
6 11 0 24 5 27 10 8 13 25 13 25 1z m443 -5 c3 -8 0 -17 -8 -19 -11 -5 -13 6
-6 31 2 6 9 0 14 -12z m1068 -13 c13 -16 12 -17 -3 -4 -17 13 -22 21 -14 21 2
0 10 -8 17 -17z m-1364 -26 c0 -7 -12 -14 -26 -15 l-26 -1 25 14 c14 8 25 14
26 15 0 0 1 -6 1 -13z m252 -8 c-22 -14 -33 -10 -19 6 7 8 17 12 22 9 6 -4 5
-10 -3 -15z m655 -173 c31 -53 31 -56 8 -49 -11 3 -21 20 -28 49 -6 24 -9 44
-8 44 1 0 14 -20 28 -44z m-555 -90 l-21 -88 -25 24 -24 25 42 66 c23 37 44
65 45 64 2 -2 -6 -43 -17 -91z m436 35 c8 -17 11 -32 6 -35 -5 -3 -11 2 -14
12 -2 9 -8 25 -12 35 -12 28 3 19 20 -12z m-573 -13 c-7 -7 -12 -8 -12 -2 0
14 12 26 19 19 2 -3 -1 -11 -7 -17z m-24 -60 c7 -9 7 -29 2 -58 -5 -25 -9 -49
-10 -53 0 -5 -14 3 -31 17 -17 14 -41 26 -55 26 -33 0 -30 7 14 46 39 35 63
42 80 22z m-299 -25 c-13 -15 -30 -33 -36 -41 -37 -40 -103 -133 -126 -177
l-26 -50 -1 59 c0 49 4 64 29 95 15 20 33 46 40 59 9 17 109 75 140 81 3 1 -6
-11 -20 -26z m257 -79 c19 -15 34 -35 34 -45 0 -26 -7 -24 -45 10 -20 17 -51
32 -76 36 -29 5 -38 10 -28 16 27 17 80 9 115 -17z m-276 -68 c0 -3 -4 -8 -10
-11 -5 -3 -10 -1 -10 4 0 6 5 11 10 11 6 0 10 -2 10 -4z m1114 -410 c-3 -13
-1 -33 5 -44 7 -14 7 -24 -4 -38 -15 -21 -32 -14 -19 8 4 7 7 27 5 45 -1 18 0
37 4 43 11 18 16 11 9 -14z m-2 -311 c7 -9 19 -22 26 -30 20 -22 15 -63 -8
-70 -28 -9 -48 10 -56 51 -10 56 10 82 38 49z m-1409 -820 l-7 -40 -7 60 c-4
33 -4 64 -1 70 11 18 22 -50 15 -90z"/>
<path d="M1609 1663 c-13 -16 -12 -17 4 -4 9 7 17 15 17 17 0 8 -8 3 -21 -13z"/>
<path d="M934 1650 c-35 -14 -54 -50 -54 -103 0 -40 5 -53 29 -78 46 -46 106
-37 136 21 49 95 -22 196 -111 160z m4 -79 c-2 -18 -9 -26 -23 -26 -23 0 -32
30 -15 50 18 21 42 7 38 -24z m110 -10 c9 -56 -30 -111 -78 -111 -32 0 -75 42
-67 64 9 22 24 20 37 -4 26 -48 95 -11 88 47 -4 37 15 41 20 4z"/>
<path d="M1677 1619 c-21 -13 -49 -71 -43 -91 3 -7 7 -25 10 -40 4 -15 16 -33
29 -39 21 -12 21 -11 5 8 -10 11 -18 25 -18 31 0 17 25 15 40 -3 7 -8 18 -15
26 -15 18 0 44 40 44 68 0 13 4 20 10 17 15 -9 12 -52 -6 -83 l-16 -27 21 25
c30 36 29 103 -4 135 -26 27 -67 32 -98 14z m18 -59 c8 -24 -1 -40 -21 -40
-17 0 -28 24 -20 45 8 22 34 18 41 -5z"/>
<path d="M1720 1440 c-23 -7 -23 -8 -3 -9 12 -1 25 4 28 9 3 6 5 10 3 9 -2 -1
-14 -5 -28 -9z"/>
<path d="M1473 1265 c0 -33 2 -45 4 -27 2 18 2 45 0 60 -2 15 -4 0 -4 -33z"/>
<path d="M1427 1072 c-10 -10 -17 -22 -17 -26 0 -9 49 27 50 37 0 13 -17 7
-33 -11z"/>
<path d="M1335 1070 c-3 -6 1 -7 9 -4 18 7 21 14 7 14 -6 0 -13 -4 -16 -10z"/>
<path d="M643 1038 c-25 -33 -44 -111 -28 -117 13 -6 55 76 55 106 0 25 -12
30 -27 11z m-2 -62 c-14 -36 -22 -33 -9 5 6 16 12 28 14 26 3 -2 0 -16 -5 -31z"/>
<path d="M1040 945 c0 -8 81 -46 90 -43 4 2 -14 13 -41 25 -27 12 -49 20 -49
18z"/>
<path d="M1158 893 c7 -3 16 -2 19 1 4 3 -2 6 -13 5 -11 0 -14 -3 -6 -6z"/>
<path d="M1488 893 c7 -3 16 -2 19 1 4 3 -2 6 -13 5 -11 0 -14 -3 -6 -6z"/>
<path d="M1208 883 c7 -3 16 -2 19 1 4 3 -2 6 -13 5 -11 0 -14 -3 -6 -6z"/>
<path d="M577 865 c-7 -16 8 -29 23 -20 15 9 12 35 -4 35 -8 0 -16 -7 -19 -15z"/>
<path d="M1318 873 c6 -2 18 -2 25 0 6 3 1 5 -13 5 -14 0 -19 -2 -12 -5z"/>
<path d="M546 770 c-17 -43 -22 -130 -7 -130 13 0 41 74 48 126 8 58 -18 61
-41 4z m14 -56 c-17 -61 -23 -49 -9 17 7 30 14 48 17 41 2 -8 -1 -34 -8 -58z"/>
<path d="M1275 750 c7 -12 72 -12 100 0 14 6 1 9 -43 9 -40 1 -61 -3 -57 -9z"/>
<path d="M1687 725 c-9 -19 -17 -43 -17 -53 0 -9 9 3 20 27 25 54 22 78 -3 26z"/>
<path d="M1637 595 c-9 -19 -15 -35 -12 -35 7 0 37 61 33 66 -3 2 -12 -12 -21
-31z"/>
<path d="M512 597 c-15 -17 1 -42 23 -33 18 6 17 37 -1 43 -6 2 -16 -2 -22
-10z"/>
<path d="M1851 567 c-1 -37 -27 -97 -41 -97 -6 0 -8 -5 -5 -10 16 -26 60 69
52 112 -4 20 -4 19 -6 -5z"/>
<path d="M980 541 c0 -6 39 -75 86 -154 112 -186 115 -190 121 -184 3 3 -26
57 -63 119 -97 161 -144 233 -144 219z"/>
<path d="M500 513 c-6 -15 -13 -35 -16 -43 -4 -12 -11 -8 -29 15 -13 16 -27
26 -30 23 -4 -3 7 -21 23 -39 24 -28 28 -41 24 -68 -3 -21 -1 -32 5 -28 6 4
13 29 15 57 3 28 11 57 17 63 17 16 5 -76 -15 -117 -17 -34 -17 -36 -5 -36 5
0 14 13 19 29 l11 30 178 -85 c210 -99 311 -157 387 -219 31 -25 56 -41 56
-36 0 5 -34 35 -76 67 -51 39 -154 98 -308 174 l-231 115 3 56 c4 64 -12 87
-28 42z"/>
<path d="M1590 509 c-7 -11 -10 -23 -7 -25 2 -2 9 7 15 21 14 30 7 33 -8 4z"/>
<path d="M1820 371 c0 -8 -7 -11 -15 -7 -8 3 -15 1 -15 -3 0 -5 7 -12 15 -15
16 -6 33 19 21 31 -3 4 -6 1 -6 -6z"/>
<path d="M2112 275 c-1 -60 -4 -128 -7 -150 l-5 -40 10 40 c6 22 9 89 7 150
l-3 110 -2 -110z"/>
<path d="M1785 300 c-3 -5 1 -10 9 -10 9 0 16 5 16 10 0 6 -4 10 -9 10 -6 0
-13 -4 -16 -10z"/>
<path d="M460 280 c0 -13 7 -20 20 -20 13 0 20 7 20 20 0 13 -7 20 -20 20 -13
0 -20 -7 -20 -20z m30 0 c0 -5 -4 -10 -10 -10 -5 0 -10 5 -10 10 0 6 5 10 10
10 6 0 10 -4 10 -10z"/>
<path d="M2547 215 c3 -27 7 -52 9 -54 7 -8 2 54 -6 79 -6 17 -7 9 -3 -25z"/>
<path d="M1395 70 c-3 -6 1 -7 9 -4 18 7 21 14 7 14 -6 0 -13 -4 -16 -10z"/>
<path d="M2092 20 c0 -14 2 -19 5 -12 2 6 2 18 0 25 -3 6 -5 1 -5 -13z"/>
</g>
</svg>
